<?xml version="1.0" encoding="UTF-8"?><svg id="Layer_1" xmlns="http://www.w3.org/2000/svg" viewBox="0 0 1920 581.22"><defs><style>.cls-1{fill:#2735cf;}</style></defs><path class="cls-1" d="m779.47,313.96h-247.68c4.95,20.7,14.73,36.9,29.36,48.59,14.61,11.71,32.28,17.55,52.98,17.55,25.19,0,45.66-8.54,61.41-25.65h96.51c-6.75,16.65-17.44,33.3-32.06,49.94-14.63,16.65-32.73,30.37-54.33,41.17-21.6,10.8-45,16.2-70.19,16.2-31.95,0-61.42-8.1-88.41-24.3-27-16.2-48.37-38.13-64.11-65.8-15.75-27.67-23.62-57.92-23.62-90.77s7.98-61.86,23.96-89.76c15.97-27.89,37.46-50.05,64.45-66.48,27-16.42,55.78-24.63,86.39-24.63s59.49,7.66,85.37,22.95c25.87,15.3,46.34,36.34,61.42,63.1,15.07,26.77,22.61,56.59,22.61,89.42,0,16.65-1.35,29.47-4.05,38.47Zm-217.31-114.39c-14.85,11.93-24.97,28.24-30.37,48.93h163.32c-5.4-20.25-15.42-36.44-30.03-48.59-14.62-12.15-31.61-18.22-50.95-18.22s-37.12,5.97-51.97,17.88Z"/><path class="cls-1" d="m794.31,452.99V108.8h68.84l14.85,33.74h3.37c7.19-8.99,19.12-18.33,35.77-28.01,16.64-9.67,35.99-14.51,58.04-14.51,27.44,0,51.63,6.19,72.55,18.56,20.92,12.38,37.22,29.93,48.93,52.64,11.7,22.72,17.55,48.93,17.55,78.62v203.14h-91.79v-195.04c0-20.25-6.53-37.46-19.57-51.63-13.05-14.17-29.25-21.26-48.59-21.26s-36.11,6.98-48.93,20.92c-12.82,13.95-19.23,31.28-19.23,51.97v195.04h-91.79Z"/><path class="cls-1" d="m1129.72,452.99V108.8h68.84l14.85,33.74h3.37c7.19-8.99,19.12-18.33,35.77-28.01,16.64-9.67,35.99-14.51,58.04-14.51,27.44,0,51.63,6.19,72.55,18.56,20.92,12.38,37.22,29.93,48.93,52.64,11.7,22.72,17.55,48.93,17.55,78.62v203.14h-91.79v-195.04c0-20.25-6.53-37.46-19.57-51.63-13.05-14.17-29.25-21.26-48.59-21.26s-36.11,6.98-48.93,20.92c-12.82,13.95-19.23,31.28-19.23,51.97v195.04h-91.79Z"/><path class="cls-1" d="m1546.46,560.97c-23.18-13.5-40.16-28.68-50.95-45.55-10.8-16.87-17.78-31.84-20.92-44.88h94.48c4.05,7.65,11.47,14.39,22.27,20.25,10.8,5.84,24.52,8.77,41.17,8.77,23.39,0,41.73-6.19,55-18.56,13.27-12.38,19.91-29.8,19.91-52.3v-27.67h-3.37c-5.4,8.1-15.98,16.65-31.72,25.65-15.76,9-33.98,13.5-54.67,13.5-27.9,0-53.89-7.65-77.95-22.95-24.07-15.29-43.31-35.87-57.7-61.75-14.4-25.87-21.6-54.33-21.6-85.37s7.19-58.94,21.6-85.03c14.39-26.09,33.63-46.79,57.7-62.09,24.06-15.29,49.83-22.95,77.27-22.95,22.95,0,42.52,4.72,58.72,14.17,16.2,9.45,28.34,18.9,36.44,28.34h3.37l15.52-33.74h68.16v318.55c0,47.69-14.62,85.26-43.87,112.71-29.25,27.44-69.51,41.17-120.8,41.17-35.55,0-64.91-6.75-88.07-20.25Zm122.15-213.94c11.92-7.65,21.36-18.22,28.34-31.72,6.97-13.5,10.46-28.57,10.46-45.22s-3.49-31.72-10.46-45.22c-6.98-13.5-16.43-24.06-28.34-31.72-11.93-7.65-24.86-11.47-38.81-11.47-21.6,0-39.93,8.44-55,25.31-15.08,16.87-22.61,37.91-22.61,63.1s7.53,46.23,22.61,63.1c15.07,16.87,33.41,25.31,55,25.31,13.94,0,26.88-3.82,38.81-11.47Z"/><path class="cls-1" d="m1827.54,446.24c-10.35-10.34-15.52-23.17-15.52-38.47s5.17-28.11,15.52-38.47c10.35-10.35,23.17-15.52,38.47-15.52s28.11,5.18,38.47,15.52c10.34,10.35,15.52,23.18,15.52,38.47s-5.18,28.12-15.52,38.47c-10.36,10.34-23.18,15.52-38.47,15.52s-28.12-5.18-38.47-15.52Z"/><path class="cls-1" d="m153.69,452.99v-153.26H0v-84.36h153.69V0h145.57c28.56,0,54.85,6.6,78.16,19.61,23.28,13.01,41.89,31.09,55.32,53.74,13.42,22.64,20.23,48.39,20.23,76.51s-6.81,53.86-20.23,76.52c-13.44,22.67-32.05,40.75-55.32,53.74-23.3,13.01-49.59,19.61-78.16,19.61h-61.46v153.26h-84.11Zm84.11-237.62h59.54c18.84,0,35.06-6.33,48.21-18.83,13.18-12.52,19.86-28.22,19.86-46.68s-6.68-34.16-19.86-46.68c-13.16-12.5-29.38-18.83-48.21-18.83h-59.54v131.02Z"/></svg>