<?xml version="1.0" encoding="UTF-8"?><svg id="Layer_1" xmlns="http://www.w3.org/2000/svg" viewBox="0 0 1080 1080"><defs><style>.cls-1{fill:#2735cf;}</style></defs><path class="cls-1" d="m366.44,1080v-365.39H.01v-201.13h366.43V0h347.07C781.6,0,844.29,15.74,899.87,46.75c55.5,31.02,99.87,74.12,131.89,128.13,32,53.98,48.23,115.36,48.23,182.41s-16.23,128.41-48.23,182.44c-32.05,54.04-76.42,97.15-131.89,128.12-55.54,31.03-118.24,46.76-186.35,46.76h-146.53v365.39h-200.54Zm200.54-566.52h141.95c44.91,0,83.58-15.1,114.94-44.9,31.43-29.85,47.36-67.29,47.36-111.29s-15.93-81.43-47.36-111.29c-31.37-29.79-70.04-44.89-114.94-44.89h-141.95v312.37Z"/></svg>