<?xml version="1.0" encoding="UTF-8"?><svg id="Layer_1" xmlns="http://www.w3.org/2000/svg" viewBox="0 0 1920 620.24"><defs><style>.cls-1{fill:#fff;}</style></defs><path class="cls-1" d="m831.81,335.04h-264.31c5.28,22.09,15.72,39.38,31.33,51.86,15.6,12.49,34.44,18.72,56.54,18.72,26.88,0,48.73-9.11,65.54-27.37h102.99c-7.2,17.77-18.61,35.54-34.21,53.3-15.61,17.77-34.93,32.41-57.98,43.93-23.05,11.52-48.02,17.29-74.9,17.29-34.1,0-65.54-8.64-94.35-25.93-28.81-17.28-51.62-40.69-68.42-70.22-16.81-29.53-25.21-61.81-25.21-96.87s8.52-66.01,25.57-95.79c17.04-29.76,39.97-53.41,68.78-70.94,28.81-17.52,59.53-26.29,92.19-26.29s63.49,8.17,91.1,24.49c27.6,16.33,49.45,38.78,65.54,67.34,16.08,28.57,24.13,60.38,24.13,95.43,0,17.77-1.44,31.45-4.32,41.05Zm-231.9-122.07c-15.84,12.73-26.65,30.14-32.41,52.21h174.29c-5.76-21.61-16.45-38.89-32.05-51.85-15.61-12.96-33.74-19.44-54.37-19.44s-39.61,6.37-55.46,19.08Z"/><path class="cls-1" d="m847.64,483.4V116.1h73.46l15.84,36.01h3.6c7.67-9.6,20.4-19.56,38.17-29.89,17.76-10.32,38.41-15.49,61.94-15.49,29.28,0,55.1,6.61,77.42,19.81,22.33,13.21,39.72,31.94,52.21,56.18,12.48,24.25,18.73,52.21,18.73,83.9v216.78h-97.95v-208.14c0-21.61-6.96-39.97-20.88-55.1-13.93-15.12-31.22-22.69-51.85-22.69s-38.53,7.45-52.21,22.33c-13.68,14.89-20.53,33.38-20.53,55.46v208.14h-97.95Z"/><path class="cls-1" d="m1205.57,483.4V116.1h73.46l15.84,36.01h3.6c7.67-9.6,20.4-19.56,38.17-29.89,17.76-10.32,38.41-15.49,61.94-15.49,29.28,0,55.1,6.61,77.42,19.81,22.33,13.21,39.72,31.94,52.21,56.18,12.48,24.25,18.73,52.21,18.73,83.9v216.78h-97.95v-208.14c0-21.61-6.96-39.97-20.88-55.1-13.93-15.12-31.22-22.69-51.85-22.69s-38.53,7.45-52.21,22.33c-13.68,14.89-20.53,33.38-20.53,55.46v208.14h-97.95Z"/><path class="cls-1" d="m1650.29,598.63c-24.73-14.4-42.85-30.61-54.38-48.61-11.52-18-18.97-33.97-22.33-47.89h100.83c4.32,8.16,12.24,15.36,23.77,21.61,11.52,6.23,26.16,9.36,43.93,9.36,24.96,0,44.53-6.6,58.7-19.81,14.16-13.21,21.25-31.8,21.25-55.82v-29.53h-3.6c-5.76,8.64-17.05,17.77-33.85,27.37-16.81,9.61-36.26,14.4-58.34,14.4-29.77,0-57.5-8.16-83.18-24.49-25.69-16.32-46.22-38.28-61.58-65.9-15.37-27.6-23.05-57.98-23.05-91.11s7.67-62.89,23.05-90.74c15.36-27.84,35.89-49.93,61.58-66.26,25.68-16.32,53.17-24.49,82.46-24.49,24.49,0,45.37,5.04,62.66,15.12,17.28,10.08,30.25,20.17,38.89,30.25h3.6l16.56-36.01h72.74v339.93c0,50.89-15.61,90.98-46.81,120.27-31.21,29.28-74.18,43.93-128.91,43.93-37.93,0-69.26-7.2-93.99-21.61Zm130.36-228.3c12.72-8.16,22.8-19.44,30.25-33.85,7.44-14.4,11.16-30.49,11.16-48.25s-3.73-33.85-11.16-48.25c-7.45-14.4-17.53-25.68-30.25-33.85-12.73-8.16-26.53-12.24-41.41-12.24-23.05,0-42.62,9-58.7,27.01-16.09,18-24.13,40.45-24.13,67.34s8.03,49.33,24.13,67.34c16.08,18,35.65,27.01,58.7,27.01,14.88,0,28.68-4.07,41.41-12.24Z"/><path class="cls-1" d="m164.01,483.4v-163.55H0v-90.02h164.01V0h155.35c30.47,0,58.54,7.04,83.41,20.93,24.84,13.88,44.7,33.18,59.03,57.35,14.32,24.16,21.59,51.63,21.59,81.64s-7.26,57.48-21.59,81.66c-14.34,24.19-34.21,43.48-59.03,57.34-24.86,13.89-52.92,20.93-83.41,20.93h-65.59v163.55h-89.76Zm89.76-253.57h63.54c20.1,0,37.41-6.76,51.45-20.1,14.07-13.36,21.2-30.12,21.2-49.81s-7.13-36.45-21.2-49.81c-14.04-13.33-31.35-20.09-51.45-20.09h-63.54v139.82Z"/></svg>